<?xml version="1.0" encoding="UTF-8"?>
<!DOCTYPE svg PUBLIC "-//W3C//DTD SVG 1.1//EN" "http://www.w3.org/Graphics/SVG/1.1/DTD/svg11.dtd">
<svg xmlns="http://www.w3.org/2000/svg" version="1.1" width="51px" height="46px" style="shape-rendering:geometricPrecision; text-rendering:geometricPrecision; image-rendering:optimizeQuality; fill-rule:evenodd; clip-rule:evenodd" xmlns:xlink="http://www.w3.org/1999/xlink">
<g><path style="opacity:0.961" fill="#5f6eff" d="M 15.5,-0.5 C 20.1667,-0.5 24.8333,-0.5 29.5,-0.5C 37.1483,2.31649 42.315,7.64982 45,15.5C 45.6667,24.5 45.6667,33.5 45,42.5C 43.955,43.3734 43.1217,44.3734 42.5,45.5C 36.1667,45.5 29.8333,45.5 23.5,45.5C 23.334,40.1563 23.5006,34.8229 24,29.5C 25.771,25.8973 28.6043,23.5639 32.5,22.5C 27.5,20.8333 24.1667,17.5 22.5,12.5C 21.4361,16.3957 19.1027,19.229 15.5,21C 10.1771,21.4994 4.84372,21.666 -0.5,21.5C -0.5,19.5 -0.5,17.5 -0.5,15.5C 2.5,7.83333 7.83333,2.5 15.5,-0.5 Z"/></g>
<g><path style="opacity:0.787" fill="#5c70ff" d="M 40.5,-0.5 C 42.1667,-0.5 43.8333,-0.5 45.5,-0.5C 45.5,1.16667 45.5,2.83333 45.5,4.5C 41.5,5.16667 39.8333,3.5 40.5,-0.5 Z"/></g>
<g><path style="opacity:0.969" fill="#5e6eff" d="M -0.5,23.5 C 17.8333,19.8333 25.1667,27.1667 21.5,45.5C 15.1667,45.5 8.83333,45.5 2.5,45.5C 1.83333,44.1667 0.833333,43.1667 -0.5,42.5C -0.5,36.1667 -0.5,29.8333 -0.5,23.5 Z"/></g>
</svg>
